<?xml version="1.0" standalone="no"?>
<!DOCTYPE svg PUBLIC "-//W3C//DTD SVG 20010904//EN"
 "http://www.w3.org/TR/2001/REC-SVG-20010904/DTD/svg10.dtd">
<svg version="1.0" xmlns="http://www.w3.org/2000/svg"
 width="212.000000pt" height="54.000000pt" viewBox="0 0 212.000000 54.000000"
 preserveAspectRatio="xMidYMid meet">

<g transform="translate(0.000000,54.000000) scale(0.100000,-0.100000)"
fill="#000000" stroke="none">
<path d="M193 511 c-39 -11 -86 -27 -105 -37 -41 -20 -88 -63 -88 -80 0 -46
70 -111 104 -98 14 5 10 11 -18 30 -60 41 -60 86 2 126 63 42 139 62 232 62
95 0 155 -14 188 -44 30 -28 28 -53 -9 -94 -33 -38 -152 -103 -157 -87 -2 6
15 44 37 84 51 93 42 107 -34 51 -16 -12 -72 -45 -122 -73 -51 -29 -93 -59
-93 -66 0 -22 34 -35 89 -35 28 0 51 -5 51 -10 0 -6 -25 -60 -56 -121 -30 -61
-53 -114 -50 -116 15 -16 52 34 105 143 58 118 59 120 102 133 141 42 235 143
182 197 -52 52 -232 69 -360 35z m122 -181 c-38 -75 -43 -78 -114 -64 -51 10
-34 34 59 86 47 26 86 47 88 48 1 0 -14 -31 -33 -70z"/>
<path d="M1343 446 c-62 -20 -122 -59 -173 -110 -36 -38 -45 -54 -50 -93 -4
-41 -10 -51 -46 -76 -66 -46 -154 -47 -154 -2 0 7 34 23 78 37 73 22 77 25 77
53 0 23 -5 30 -30 37 -43 11 -88 -7 -129 -53 -20 -21 -36 -43 -36 -47 0 -9
-44 -32 -61 -32 -6 0 1 14 15 31 47 56 25 65 -62 24 -51 -23 -53 -24 -47 -5 5
16 2 20 -17 20 -13 0 -32 -7 -42 -15 -27 -21 -39 -19 -31 5 6 19 3 20 -22 14
-15 -4 -40 -13 -55 -20 -34 -18 -38 -17 -38 1 0 17 -23 20 -50 5 -16 -8 -18
-7 -14 4 5 12 -4 14 -53 10 -77 -7 -83 -10 -83 -34 0 -26 22 -26 45 0 10 11
22 20 28 20 5 0 -6 -17 -24 -37 -40 -46 -23 -56 42 -23 34 18 41 19 36 6 -10
-24 25 -20 84 9 l50 26 -17 -26 c-16 -24 -16 -25 6 -25 13 0 38 9 56 21 32 20
46 15 23 -8 -24 -24 11 -21 70 7 76 36 92 38 63 7 -12 -13 -22 -29 -22 -36 0
-13 6 -12 79 14 30 10 36 9 57 -12 19 -19 34 -23 79 -23 31 0 72 7 92 15 20 8
37 14 37 13 11 -29 37 -66 59 -82 24 -18 43 -21 120 -21 107 1 169 23 253 91
55 45 93 68 100 61 3 -2 -2 -10 -11 -17 -8 -7 -15 -19 -15 -27 0 -17 23 -11
92 23 61 31 64 30 38 -7 -12 -16 -20 -32 -18 -34 2 -2 28 2 58 10 50 13 56 13
75 -4 28 -26 94 -34 148 -17 48 14 107 51 107 66 0 12 -44 -4 -79 -29 -46 -32
-90 -42 -120 -28 -48 23 -37 41 36 61 96 27 105 33 101 64 -3 23 -8 27 -42 30
-53 5 -90 -13 -135 -64 -41 -47 -100 -80 -82 -46 6 10 17 24 25 32 9 7 16 16
16 21 0 15 -27 10 -86 -16 -69 -31 -70 -31 -50 0 9 13 16 27 16 30 0 11 -32 4
-70 -15 l-40 -20 8 32 c20 90 2 162 -47 195 -34 22 -161 28 -218 9z m198 -24
c27 -24 33 -37 37 -86 6 -79 -18 -141 -61 -155 -34 -11 -136 -28 -202 -35 -22
-2 3 -2 55 0 52 2 106 7 120 10 l25 7 -19 -22 c-48 -53 -204 -104 -271 -87
-40 10 -75 53 -75 92 l0 33 35 -15 c19 -7 45 -14 57 -14 16 1 11 5 -17 15 -80
28 -91 75 -36 145 63 80 178 138 273 139 39 1 54 -4 79 -27z m-497 -151 c13
-20 -7 -38 -56 -54 -29 -9 -54 -14 -57 -11 -3 3 11 21 31 40 37 33 71 43 82
25z m976 -3 c0 -23 -15 -35 -64 -51 -65 -22 -73 -21 -50 4 41 47 114 76 114
47z"/>
<path d="M506 298 c-21 -30 -20 -49 2 -41 35 12 58 63 28 63 -8 0 -22 -10 -30
-22z"/>
</g>
</svg>
