<svg width="70" height="70" viewBox="0 0 70 70" fill="none" xmlns="http://www.w3.org/2000/svg">
<g clip-path="url(#clip0_101412_712)">
<mask id="mask0_101412_712" style="mask-type:luminance" maskUnits="userSpaceOnUse" x="3" y="3" width="64" height="64">
<path d="M34.921 3.38098C35.1048 3.38098 35.2869 3.41719 35.4568 3.48755C35.6266 3.55791 35.7809 3.66103 35.9109 3.79103C36.0409 3.92103 36.1441 4.07537 36.2144 4.24522C36.2848 4.41508 36.321 4.59713 36.321 4.78098C36.321 4.96483 36.2848 5.14688 36.2144 5.31674C36.1441 5.48659 36.0409 5.64093 35.9109 5.77093C35.7809 5.90093 35.6266 6.00406 35.4568 6.07441C35.2869 6.14477 35.1048 6.18098 34.921 6.18098C34.5497 6.18098 34.1936 6.03348 33.931 5.77093C33.6685 5.50838 33.521 5.15228 33.521 4.78098C33.521 4.40968 33.6685 4.05358 33.931 3.79103C34.1936 3.52848 34.5497 3.38098 34.921 3.38098ZM34.921 63.581C35.1048 63.581 35.2869 63.6172 35.4568 63.6875C35.6266 63.7579 35.7809 63.861 35.9109 63.991C36.0409 64.121 36.1441 64.2754 36.2144 64.4452C36.2848 64.6151 36.321 64.7971 36.321 64.981C36.321 65.1648 36.2848 65.3469 36.2144 65.5167C36.1441 65.6866 36.0409 65.8409 35.9109 65.9709C35.7809 66.1009 35.6266 66.2041 35.4568 66.2744C35.2869 66.3448 35.1048 66.381 34.921 66.381C34.5497 66.381 34.1936 66.2335 33.931 65.9709C33.6685 65.7084 33.521 65.3523 33.521 64.981C33.521 64.6097 33.6685 64.2536 33.931 63.991C34.1936 63.7285 34.5497 63.581 34.921 63.581ZM43.076 4.45698C43.2536 4.50452 43.4201 4.58658 43.566 4.69847C43.7119 4.81036 43.8344 4.94989 43.9263 5.10909C44.0183 5.2683 44.078 5.44406 44.1021 5.62635C44.1261 5.80863 44.114 5.99387 44.0665 6.17148C44.019 6.34909 43.9369 6.5156 43.825 6.66151C43.7131 6.80741 43.5736 6.92984 43.4144 7.02182C43.2552 7.11379 43.0794 7.17351 42.8971 7.19756C42.7148 7.22161 42.5296 7.20952 42.352 7.16198C41.9933 7.06597 41.6874 6.8314 41.5017 6.50987C41.3159 6.18834 41.2655 5.80619 41.3615 5.44748C41.4575 5.08878 41.6921 4.7829 42.0136 4.59715C42.3351 4.41139 42.7173 4.36097 43.076 4.45698ZM27.496 62.606C27.6756 62.6517 27.8444 62.7327 27.9925 62.8442C28.1406 62.9557 28.2651 63.0955 28.3587 63.2555C28.4523 63.4154 28.5133 63.5924 28.538 63.7762C28.5627 63.9599 28.5506 64.1467 28.5026 64.3257C28.4545 64.5047 28.3714 64.6724 28.258 64.8191C28.1446 64.9657 28.0032 65.0884 27.842 65.18C27.6808 65.2715 27.5031 65.3302 27.319 65.3525C27.135 65.3748 26.9484 65.3604 26.77 65.31C26.4176 65.2084 26.1191 64.9725 25.9388 64.6532C25.7585 64.3338 25.7106 63.9565 25.8056 63.6022C25.9006 63.248 26.1308 62.9452 26.4467 62.7589C26.7626 62.5726 27.14 62.5177 27.496 62.606ZM50.674 7.60698C50.8332 7.69891 50.9728 7.82129 51.0847 7.96716C51.1966 8.11302 51.2787 8.2795 51.3263 8.45709C51.3739 8.63468 51.3861 8.81991 51.3621 9.00219C51.3381 9.18448 51.2784 9.36025 51.1865 9.51948C51.0946 9.67871 50.9722 9.81827 50.8263 9.9302C50.6805 10.0421 50.514 10.1242 50.3364 10.1718C50.1588 10.2194 49.9736 10.2316 49.7913 10.2076C49.609 10.1836 49.4332 10.1239 49.274 10.032C48.9524 9.84633 48.7178 9.54054 48.6217 9.18187C48.5255 8.82321 48.5758 8.44106 48.7615 8.11948C48.9471 7.79791 49.2529 7.56325 49.6116 7.46714C49.9703 7.37103 50.3524 7.42133 50.674 7.60698ZM20.574 59.742C20.7332 59.8339 20.8728 59.9563 20.9847 60.1022C21.0966 60.248 21.1787 60.4145 21.2263 60.5921C21.2739 60.7697 21.2861 60.9549 21.2621 61.1372C21.2381 61.3195 21.1784 61.4953 21.0865 61.6545C20.9946 61.8137 20.8722 61.9533 20.7263 62.0652C20.5805 62.1771 20.414 62.2592 20.2364 62.3068C20.0588 62.3544 19.8736 62.3666 19.6913 62.3426C19.509 62.3186 19.3332 62.2589 19.174 62.167C18.8524 61.9813 18.6178 61.6755 18.5217 61.3169C18.4255 60.9582 18.4758 60.5761 18.6615 60.2545C18.8471 59.9329 19.1529 59.6983 19.5116 59.6021C19.8703 59.506 20.2524 59.5563 20.574 59.742ZM57.198 12.616C57.328 12.746 57.4311 12.9003 57.5015 13.0702C57.5719 13.2401 57.6081 13.4221 57.6081 13.606C57.6081 13.7898 57.5719 13.9719 57.5015 14.1418C57.4311 14.3116 57.328 14.466 57.198 14.596C57.068 14.726 56.9136 14.8291 56.7438 14.8995C56.5739 14.9698 56.3919 15.0061 56.208 15.0061C56.0241 15.0061 55.8421 14.9698 55.6722 14.8995C55.5023 14.8291 55.348 14.726 55.218 14.596C54.9554 14.3334 54.8079 13.9773 54.8079 13.606C54.8079 13.2347 54.9554 12.8785 55.218 12.616C55.4806 12.3534 55.8367 12.2059 56.208 12.2059C56.5793 12.2059 56.9354 12.3534 57.198 12.616ZM14.631 55.184C14.761 55.314 14.8641 55.4683 14.9345 55.6382C15.0049 55.8081 15.0411 55.9901 15.0411 56.174C15.0411 56.3578 15.0049 56.5399 14.9345 56.7098C14.8641 56.8796 14.761 57.034 14.631 57.164C14.501 57.294 14.3466 57.3971 14.1768 57.4675C14.0069 57.5378 13.8249 57.5741 13.641 57.5741C13.4571 57.5741 13.2751 57.5378 13.1052 57.4675C12.9353 57.3971 12.781 57.294 12.651 57.164C12.3884 56.9014 12.2409 56.5453 12.2409 56.174C12.2409 55.8027 12.3884 55.4465 12.651 55.184C12.9136 54.9214 13.2697 54.7739 13.641 54.7739C14.0123 54.7739 14.3684 54.9214 14.631 55.184ZM62.205 19.144C62.2969 19.3032 62.3566 19.479 62.3806 19.6613C62.4046 19.8436 62.3924 20.0288 62.3448 20.2064C62.2972 20.384 62.2151 20.5504 62.1032 20.6963C61.9913 20.8422 61.8517 20.9646 61.6925 21.0565C61.5333 21.1484 61.3575 21.2081 61.1752 21.2321C60.9929 21.2561 60.8077 21.2439 60.6301 21.1963C60.4525 21.1487 60.286 21.0666 60.1402 20.9547C59.9943 20.8428 59.8719 20.7032 59.78 20.544C59.5943 20.2224 59.544 19.8403 59.6402 19.4816C59.7363 19.1229 59.9709 18.8171 60.2925 18.6315C60.6141 18.4458 60.9962 18.3955 61.3549 18.4916C61.7136 18.5878 62.0193 18.8224 62.205 19.144ZM10.07 49.244C10.1619 49.4033 10.2216 49.5791 10.2455 49.7615C10.2695 49.9438 10.2573 50.1291 10.2097 50.3067C10.1621 50.4844 10.0799 50.6509 9.96791 50.7968C9.85592 50.9427 9.71629 51.0651 9.557 51.157C9.3977 51.2489 9.22186 51.3086 9.03952 51.3325C8.85717 51.3565 8.67189 51.3443 8.49425 51.2967C8.13549 51.2005 7.82965 50.9657 7.644 50.644C7.45835 50.3223 7.4081 49.94 7.5043 49.5812C7.60051 49.2225 7.83529 48.9166 8.157 48.731C8.4787 48.5453 8.86099 48.4951 9.21974 48.5913C9.5785 48.6875 9.88435 48.9223 10.07 49.244ZM65.35 26.744C65.4024 26.923 65.4185 27.1108 65.3973 27.2962C65.3762 27.4815 65.3182 27.6608 65.2267 27.8234C65.1353 27.9861 65.0122 28.1288 64.8649 28.2432C64.7175 28.3576 64.5487 28.4414 64.3685 28.4897C64.1882 28.5379 64.0002 28.5497 63.8154 28.5242C63.6305 28.4988 63.4526 28.4366 63.2922 28.3414C63.1317 28.2462 62.9919 28.1199 62.8809 27.9699C62.7699 27.8199 62.6901 27.6493 62.646 27.468C62.5596 27.1126 62.6157 26.7376 62.8023 26.4231C62.9888 26.1086 63.291 25.8795 63.6443 25.7849C63.9975 25.6904 64.3738 25.7378 64.6925 25.917C65.0113 26.0962 65.2473 26.393 65.35 26.744ZM7.202 42.324C7.2496 42.5016 7.26176 42.6868 7.23777 42.8692C7.21378 43.0515 7.15412 43.2273 7.06219 43.3865C6.97026 43.5458 6.84786 43.6854 6.70198 43.7973C6.55611 43.9093 6.38961 43.9914 6.212 44.039C6.03438 44.0866 5.84913 44.0987 5.66682 44.0747C5.48451 44.0508 5.30871 43.9911 5.14946 43.8992C4.99021 43.8072 4.85062 43.6848 4.73867 43.539C4.62672 43.3931 4.5446 43.2266 4.497 43.049C4.40099 42.6903 4.45141 42.3081 4.63716 41.9866C4.82292 41.6651 5.12879 41.4305 5.4875 41.3345C5.8462 41.2385 6.22836 41.2889 6.54989 41.4746C6.87142 41.6604 7.10599 41.9653 7.202 42.324ZM66.422 34.899C66.422 35.2703 66.2745 35.6264 66.0119 35.8889C65.7494 36.1515 65.3933 36.299 65.022 36.299C64.6507 36.299 64.2946 36.1515 64.032 35.8889C63.7695 35.6264 63.622 35.2703 63.622 34.899C63.622 34.5277 63.7695 34.1716 64.032 33.909C64.2946 33.6465 64.6507 33.499 65.022 33.499C65.3933 33.499 65.7494 33.6465 66.0119 33.909C66.2745 34.1716 66.422 34.5277 66.422 34.899ZM6.222 34.899C6.222 35.2703 6.0745 35.6264 5.81195 35.8889C5.5494 36.1515 5.1933 36.299 4.822 36.299C4.45069 36.299 4.0946 36.1515 3.83205 35.8889C3.5695 35.6264 3.422 35.2703 3.422 34.899C3.422 34.5277 3.5695 34.1716 3.83205 33.909C4.0946 33.6465 4.45069 33.499 4.822 33.499C5.1933 33.499 5.5494 33.6465 5.81195 33.909C6.0745 34.1716 6.222 34.5277 6.222 34.899ZM65.346 43.054C65.3019 43.2353 65.2221 43.4059 65.1111 43.5559C65.0001 43.7059 64.8603 43.8322 64.6998 43.9274C64.5394 44.0226 64.3615 44.0848 64.1766 44.1102C63.9918 44.1357 63.8037 44.1239 63.6235 44.0757C63.4433 44.0274 63.2745 43.9436 63.1271 43.8292C62.9797 43.7148 62.8567 43.5721 62.7653 43.4094C62.6738 43.2468 62.6158 43.0675 62.5946 42.8822C62.5735 42.6968 62.5896 42.509 62.642 42.33C62.7447 41.979 62.9807 41.6822 63.2995 41.503C63.6182 41.3238 63.9945 41.2764 64.3477 41.3709C64.7009 41.4655 65.0032 41.6946 65.1897 42.0091C65.3763 42.3236 65.4324 42.6986 65.346 43.054ZM7.197 27.474C7.14933 27.6516 7.06714 27.8181 6.95513 27.9639C6.84312 28.1098 6.70348 28.2321 6.54418 28.324C6.38488 28.4159 6.20904 28.4755 6.02671 28.4994C5.84437 28.5234 5.65911 28.5111 5.4815 28.4635C5.30388 28.4158 5.1374 28.3336 4.99155 28.2216C4.8457 28.1096 4.72334 27.97 4.63146 27.8107C4.53957 27.6514 4.47996 27.4755 4.45604 27.2932C4.43211 27.1109 4.44433 26.9256 4.492 26.748C4.5396 26.5704 4.62172 26.4039 4.73367 26.258C4.84562 26.1121 4.98521 25.9897 5.14446 25.8978C5.30371 25.8059 5.47951 25.7462 5.66182 25.7222C5.84413 25.6982 6.02938 25.7104 6.207 25.758C6.38461 25.8056 6.55111 25.8877 6.69698 25.9997C6.84286 26.1116 6.96526 26.2512 7.05719 26.4104C7.14912 26.5697 7.20878 26.7455 7.23277 26.9278C7.25676 27.1101 7.2446 27.2954 7.197 27.473V27.474ZM62.196 50.653C62.1041 50.8122 61.9817 50.9518 61.8358 51.0637C61.69 51.1756 61.5235 51.2577 61.3459 51.3053C61.1683 51.3529 60.9831 51.3651 60.8008 51.3411C60.6185 51.3171 60.4427 51.2574 60.2835 51.1655C60.1243 51.0736 59.9847 50.9512 59.8728 50.8053C59.7608 50.6594 59.6787 50.493 59.6312 50.3154C59.5836 50.1378 59.5714 49.9526 59.5954 49.7703C59.6194 49.588 59.6791 49.4122 59.771 49.253C59.9566 48.9314 60.2624 48.6968 60.6211 48.6006C60.9798 48.5045 61.3619 48.5548 61.6835 48.7405C62.0051 48.9261 62.2397 49.2319 62.3358 49.5906C62.432 49.9493 62.3816 50.3314 62.196 50.653ZM10.061 20.553C9.87535 20.8746 9.56955 21.1092 9.21089 21.2053C8.85223 21.3014 8.47007 21.2511 8.1485 21.0655C7.82692 20.8798 7.59227 20.574 7.49616 20.2154C7.40004 19.8567 7.45035 19.4746 7.636 19.153C7.72792 18.9938 7.85031 18.8542 7.99617 18.7423C8.14203 18.6303 8.30851 18.5482 8.4861 18.5006C8.6637 18.453 8.84892 18.4409 9.03121 18.4649C9.21349 18.4889 9.38927 18.5486 9.5485 18.6405C9.70772 18.7324 9.84729 18.8548 9.95922 19.0007C10.0711 19.1465 10.1532 19.313 10.2008 19.4906C10.2484 19.6682 10.2606 19.8534 10.2366 20.0357C10.2126 20.218 10.1529 20.3938 10.061 20.553ZM57.187 57.177C57.057 57.307 56.9026 57.4101 56.7328 57.4805C56.5629 57.5508 56.3809 57.5871 56.197 57.5871C56.0131 57.5871 55.8311 57.5508 55.6612 57.4805C55.4913 57.4101 55.337 57.307 55.207 57.177C55.077 57.047 54.9739 56.8926 54.9035 56.7228C54.8331 56.5529 54.7969 56.3708 54.7969 56.187C54.7969 56.0031 54.8331 55.8211 54.9035 55.6512C54.9739 55.4813 55.077 55.327 55.207 55.197C55.4696 54.9344 55.8257 54.7869 56.197 54.7869C56.5683 54.7869 56.9244 54.9344 57.187 55.197C57.4496 55.4595 57.5971 55.8157 57.5971 56.187C57.5971 56.5583 57.4496 56.9144 57.187 57.177ZM14.619 14.609C14.489 14.739 14.3346 14.8421 14.1648 14.9125C13.9949 14.9828 13.8129 15.0191 13.629 15.0191C13.4451 15.0191 13.2631 14.9828 13.0932 14.9125C12.9233 14.8421 12.769 14.739 12.639 14.609C12.509 14.479 12.4059 14.3246 12.3355 14.1548C12.2651 13.9849 12.2289 13.8028 12.2289 13.619C12.2289 13.4351 12.2651 13.2531 12.3355 13.0832C12.4059 12.9133 12.509 12.759 12.639 12.629C12.9016 12.3664 13.2577 12.2189 13.629 12.2189C14.0003 12.2189 14.3564 12.3664 14.619 12.629C14.8816 12.8915 15.0291 13.2477 15.0291 13.619C15.0291 13.9903 14.8816 14.3464 14.619 14.609ZM50.659 62.183C50.4998 62.2749 50.324 62.3346 50.1417 62.3586C49.9594 62.3826 49.7742 62.3704 49.5966 62.3228C49.419 62.2752 49.2525 62.1931 49.1067 62.0812C48.9608 61.9693 48.8384 61.8297 48.7465 61.6705C48.6546 61.5113 48.5949 61.3355 48.5709 61.1532C48.5469 60.9709 48.5591 60.7857 48.6067 60.6081C48.6542 60.4305 48.7363 60.264 48.8483 60.1182C48.9602 59.9723 49.0998 59.8499 49.259 59.758C49.5806 59.5723 49.9627 59.522 50.3214 59.6181C50.6801 59.7143 50.9858 59.9489 51.1715 60.2705C51.3571 60.5921 51.4074 60.9742 51.3113 61.3329C51.2152 61.6915 50.9806 61.9973 50.659 62.183ZM20.559 10.048C20.3998 10.1399 20.224 10.1996 20.0417 10.2236C19.8594 10.2476 19.6742 10.2354 19.4966 10.1878C19.319 10.1402 19.1525 10.0581 19.0067 9.9462C18.8608 9.83427 18.7384 9.69471 18.6465 9.53548C18.5546 9.37625 18.4949 9.20048 18.4709 9.01819C18.4469 8.83591 18.4591 8.65068 18.5067 8.47309C18.5542 8.2955 18.6363 8.12902 18.7483 7.98316C18.8602 7.83729 18.9998 7.71491 19.159 7.62298C19.4806 7.43733 19.8627 7.38703 20.2214 7.48314C20.5801 7.57925 20.8858 7.81391 21.0715 8.13548C21.2572 8.45706 21.3075 8.83921 21.2113 9.19787C21.1152 9.55654 20.8806 9.86233 20.559 10.048ZM43.059 65.328C42.8799 65.3804 42.6922 65.3965 42.5068 65.3753C42.3214 65.3542 42.1422 65.2962 41.9795 65.2047C41.8169 65.1133 41.6742 64.9902 41.5598 64.8429C41.4454 64.6955 41.3616 64.5267 41.3133 64.3465C41.265 64.1662 41.2533 63.9782 41.2788 63.7933C41.3042 63.6085 41.3664 63.4306 41.4616 63.2701C41.5567 63.1097 41.683 62.9698 41.833 62.8589C41.983 62.7479 42.1537 62.6681 42.335 62.624C42.6903 62.5376 43.0654 62.5937 43.3799 62.7803C43.6944 62.9668 43.9234 63.269 44.018 63.6223C44.1126 63.9755 44.0652 64.3517 43.886 64.6705C43.7068 64.9893 43.41 65.2252 43.059 65.328ZM27.48 7.17998C27.3024 7.22759 27.1171 7.23974 26.9348 7.21575C26.7525 7.19176 26.5767 7.1321 26.4175 7.04017C26.2582 6.94824 26.1186 6.82584 26.0067 6.67997C25.8947 6.53409 25.8126 6.36759 25.765 6.18998C25.7174 6.01237 25.7052 5.82712 25.7292 5.64481C25.7532 5.4625 25.8129 5.2867 25.9048 5.12745C25.9967 4.96819 26.1191 4.82861 26.265 4.71666C26.4109 4.60471 26.5774 4.52259 26.755 4.47498C26.9326 4.42744 27.1178 4.41535 27.3001 4.4394C27.4824 4.46345 27.6582 4.52317 27.8174 4.61515C27.9766 4.70712 28.1161 4.82956 28.228 4.97546C28.3399 5.12136 28.422 5.28787 28.4695 5.46548C28.517 5.64309 28.5291 5.82833 28.5051 6.01062C28.481 6.1929 28.4213 6.36866 28.3293 6.52787C28.2374 6.68708 28.1149 6.82661 27.969 6.9385C27.8231 7.05039 27.6576 7.13244 27.48 7.17998Z" fill="white"/>
</mask>
<g mask="url(#mask0_101412_712)">
<path d="M34.921 3.38098C35.1048 3.38098 35.2869 3.41719 35.4568 3.48755C35.6266 3.55791 35.7809 3.66103 35.9109 3.79103C36.0409 3.92103 36.1441 4.07537 36.2144 4.24522C36.2848 4.41508 36.321 4.59713 36.321 4.78098C36.321 4.96483 36.2848 5.14688 36.2144 5.31674C36.1441 5.48659 36.0409 5.64093 35.9109 5.77093C35.7809 5.90093 35.6266 6.00406 35.4568 6.07441C35.2869 6.14477 35.1048 6.18098 34.921 6.18098C34.5497 6.18098 34.1936 6.03348 33.931 5.77093C33.6685 5.50838 33.521 5.15228 33.521 4.78098C33.521 4.40968 33.6685 4.05358 33.931 3.79103C34.1936 3.52848 34.5497 3.38098 34.921 3.38098ZM34.921 63.581C35.1048 63.581 35.2869 63.6172 35.4568 63.6875C35.6266 63.7579 35.7809 63.861 35.9109 63.991C36.0409 64.121 36.1441 64.2754 36.2144 64.4452C36.2848 64.6151 36.321 64.7971 36.321 64.981C36.321 65.1648 36.2848 65.3469 36.2144 65.5167C36.1441 65.6866 36.0409 65.8409 35.9109 65.9709C35.7809 66.1009 35.6266 66.2041 35.4568 66.2744C35.2869 66.3448 35.1048 66.381 34.921 66.381C34.5497 66.381 34.1936 66.2335 33.931 65.9709C33.6685 65.7084 33.521 65.3523 33.521 64.981C33.521 64.6097 33.6685 64.2536 33.931 63.991C34.1936 63.7285 34.5497 63.581 34.921 63.581ZM43.076 4.45698C43.2536 4.50452 43.4201 4.58658 43.566 4.69847C43.7119 4.81036 43.8344 4.94989 43.9263 5.10909C44.0183 5.2683 44.078 5.44406 44.1021 5.62635C44.1261 5.80863 44.114 5.99387 44.0665 6.17148C44.019 6.34909 43.9369 6.5156 43.825 6.66151C43.7131 6.80741 43.5736 6.92984 43.4144 7.02182C43.2552 7.11379 43.0794 7.17351 42.8971 7.19756C42.7148 7.22161 42.5296 7.20952 42.352 7.16198C41.9933 7.06597 41.6874 6.8314 41.5017 6.50987C41.3159 6.18834 41.2655 5.80619 41.3615 5.44748C41.4575 5.08878 41.6921 4.7829 42.0136 4.59715C42.3351 4.41139 42.7173 4.36097 43.076 4.45698ZM27.496 62.606C27.6756 62.6517 27.8444 62.7327 27.9925 62.8442C28.1406 62.9557 28.2651 63.0955 28.3587 63.2555C28.4523 63.4154 28.5133 63.5924 28.538 63.7762C28.5627 63.9599 28.5506 64.1467 28.5026 64.3257C28.4545 64.5047 28.3714 64.6724 28.258 64.8191C28.1446 64.9657 28.0032 65.0884 27.842 65.18C27.6808 65.2715 27.5031 65.3302 27.319 65.3525C27.135 65.3748 26.9484 65.3604 26.77 65.31C26.4176 65.2084 26.1191 64.9725 25.9388 64.6532C25.7585 64.3338 25.7106 63.9565 25.8056 63.6022C25.9006 63.248 26.1308 62.9452 26.4467 62.7589C26.7626 62.5726 27.14 62.5177 27.496 62.606ZM50.674 7.60698C50.8332 7.69891 50.9728 7.82129 51.0847 7.96716C51.1966 8.11302 51.2787 8.2795 51.3263 8.45709C51.3739 8.63468 51.3861 8.81991 51.3621 9.00219C51.3381 9.18448 51.2784 9.36025 51.1865 9.51948C51.0946 9.67871 50.9722 9.81827 50.8263 9.9302C50.6805 10.0421 50.514 10.1242 50.3364 10.1718C50.1588 10.2194 49.9736 10.2316 49.7913 10.2076C49.609 10.1836 49.4332 10.1239 49.274 10.032C48.9524 9.84633 48.7178 9.54054 48.6217 9.18187C48.5255 8.82321 48.5758 8.44106 48.7615 8.11948C48.9471 7.79791 49.2529 7.56325 49.6116 7.46714C49.9703 7.37103 50.3524 7.42133 50.674 7.60698ZM20.574 59.742C20.7332 59.8339 20.8728 59.9563 20.9847 60.1022C21.0966 60.248 21.1787 60.4145 21.2263 60.5921C21.2739 60.7697 21.2861 60.9549 21.2621 61.1372C21.2381 61.3195 21.1784 61.4953 21.0865 61.6545C20.9946 61.8137 20.8722 61.9533 20.7263 62.0652C20.5805 62.1771 20.414 62.2592 20.2364 62.3068C20.0588 62.3544 19.8736 62.3666 19.6913 62.3426C19.509 62.3186 19.3332 62.2589 19.174 62.167C18.8524 61.9813 18.6178 61.6755 18.5217 61.3169C18.4255 60.9582 18.4758 60.5761 18.6615 60.2545C18.8471 59.9329 19.1529 59.6983 19.5116 59.6021C19.8703 59.506 20.2524 59.5563 20.574 59.742ZM57.198 12.616C57.328 12.746 57.4311 12.9003 57.5015 13.0702C57.5719 13.2401 57.6081 13.4221 57.6081 13.606C57.6081 13.7898 57.5719 13.9719 57.5015 14.1418C57.4311 14.3116 57.328 14.466 57.198 14.596C57.068 14.726 56.9136 14.8291 56.7438 14.8995C56.5739 14.9698 56.3919 15.0061 56.208 15.0061C56.0241 15.0061 55.8421 14.9698 55.6722 14.8995C55.5023 14.8291 55.348 14.726 55.218 14.596C54.9554 14.3334 54.8079 13.9773 54.8079 13.606C54.8079 13.2347 54.9554 12.8785 55.218 12.616C55.4806 12.3534 55.8367 12.2059 56.208 12.2059C56.5793 12.2059 56.9354 12.3534 57.198 12.616ZM14.631 55.184C14.761 55.314 14.8641 55.4683 14.9345 55.6382C15.0049 55.8081 15.0411 55.9901 15.0411 56.174C15.0411 56.3578 15.0049 56.5399 14.9345 56.7098C14.8641 56.8796 14.761 57.034 14.631 57.164C14.501 57.294 14.3466 57.3971 14.1768 57.4675C14.0069 57.5378 13.8249 57.5741 13.641 57.5741C13.4571 57.5741 13.2751 57.5378 13.1052 57.4675C12.9353 57.3971 12.781 57.294 12.651 57.164C12.3884 56.9014 12.2409 56.5453 12.2409 56.174C12.2409 55.8027 12.3884 55.4465 12.651 55.184C12.9136 54.9214 13.2697 54.7739 13.641 54.7739C14.0123 54.7739 14.3684 54.9214 14.631 55.184ZM62.205 19.144C62.2969 19.3032 62.3566 19.479 62.3806 19.6613C62.4046 19.8436 62.3924 20.0288 62.3448 20.2064C62.2972 20.384 62.2151 20.5504 62.1032 20.6963C61.9913 20.8422 61.8517 20.9646 61.6925 21.0565C61.5333 21.1484 61.3575 21.2081 61.1752 21.2321C60.9929 21.2561 60.8077 21.2439 60.6301 21.1963C60.4525 21.1487 60.286 21.0666 60.1402 20.9547C59.9943 20.8428 59.8719 20.7032 59.78 20.544C59.5943 20.2224 59.544 19.8403 59.6402 19.4816C59.7363 19.1229 59.9709 18.8171 60.2925 18.6315C60.6141 18.4458 60.9962 18.3955 61.3549 18.4916C61.7136 18.5878 62.0193 18.8224 62.205 19.144ZM10.07 49.244C10.1619 49.4033 10.2216 49.5791 10.2455 49.7615C10.2695 49.9438 10.2573 50.1291 10.2097 50.3067C10.1621 50.4844 10.0799 50.6509 9.96791 50.7968C9.85592 50.9427 9.71629 51.0651 9.557 51.157C9.3977 51.2489 9.22186 51.3086 9.03952 51.3325C8.85717 51.3565 8.67189 51.3443 8.49425 51.2967C8.13549 51.2005 7.82965 50.9657 7.644 50.644C7.45835 50.3223 7.4081 49.94 7.5043 49.5812C7.60051 49.2225 7.83529 48.9166 8.157 48.731C8.4787 48.5453 8.86099 48.4951 9.21974 48.5913C9.5785 48.6875 9.88435 48.9223 10.07 49.244ZM65.35 26.744C65.4024 26.923 65.4185 27.1108 65.3973 27.2962C65.3762 27.4815 65.3182 27.6608 65.2267 27.8234C65.1353 27.9861 65.0122 28.1288 64.8649 28.2432C64.7175 28.3576 64.5487 28.4414 64.3685 28.4897C64.1882 28.5379 64.0002 28.5497 63.8154 28.5242C63.6305 28.4988 63.4526 28.4366 63.2922 28.3414C63.1317 28.2462 62.9919 28.1199 62.8809 27.9699C62.7699 27.8199 62.6901 27.6493 62.646 27.468C62.5596 27.1126 62.6157 26.7376 62.8023 26.4231C62.9888 26.1086 63.291 25.8795 63.6443 25.7849C63.9975 25.6904 64.3738 25.7378 64.6925 25.917C65.0113 26.0962 65.2473 26.393 65.35 26.744ZM7.202 42.324C7.2496 42.5016 7.26176 42.6868 7.23777 42.8692C7.21378 43.0515 7.15412 43.2273 7.06219 43.3865C6.97026 43.5458 6.84786 43.6854 6.70198 43.7973C6.55611 43.9093 6.38961 43.9914 6.212 44.039C6.03438 44.0866 5.84913 44.0987 5.66682 44.0747C5.48451 44.0508 5.30871 43.9911 5.14946 43.8992C4.99021 43.8072 4.85062 43.6848 4.73867 43.539C4.62672 43.3931 4.5446 43.2266 4.497 43.049C4.40099 42.6903 4.45141 42.3081 4.63716 41.9866C4.82292 41.6651 5.12879 41.4305 5.4875 41.3345C5.8462 41.2385 6.22836 41.2889 6.54989 41.4746C6.87142 41.6604 7.10599 41.9653 7.202 42.324ZM66.422 34.899C66.422 35.2703 66.2745 35.6264 66.0119 35.8889C65.7494 36.1515 65.3933 36.299 65.022 36.299C64.6507 36.299 64.2946 36.1515 64.032 35.8889C63.7695 35.6264 63.622 35.2703 63.622 34.899C63.622 34.5277 63.7695 34.1716 64.032 33.909C64.2946 33.6465 64.6507 33.499 65.022 33.499C65.3933 33.499 65.7494 33.6465 66.0119 33.909C66.2745 34.1716 66.422 34.5277 66.422 34.899ZM6.222 34.899C6.222 35.2703 6.0745 35.6264 5.81195 35.8889C5.5494 36.1515 5.1933 36.299 4.822 36.299C4.45069 36.299 4.0946 36.1515 3.83205 35.8889C3.5695 35.6264 3.422 35.2703 3.422 34.899C3.422 34.5277 3.5695 34.1716 3.83205 33.909C4.0946 33.6465 4.45069 33.499 4.822 33.499C5.1933 33.499 5.5494 33.6465 5.81195 33.909C6.0745 34.1716 6.222 34.5277 6.222 34.899ZM65.346 43.054C65.3019 43.2353 65.2221 43.4059 65.1111 43.5559C65.0001 43.7059 64.8603 43.8322 64.6998 43.9274C64.5394 44.0226 64.3615 44.0848 64.1766 44.1102C63.9918 44.1357 63.8037 44.1239 63.6235 44.0757C63.4433 44.0274 63.2745 43.9436 63.1271 43.8292C62.9797 43.7148 62.8567 43.5721 62.7653 43.4094C62.6738 43.2468 62.6158 43.0675 62.5946 42.8822C62.5735 42.6968 62.5896 42.509 62.642 42.33C62.7447 41.979 62.9807 41.6822 63.2995 41.503C63.6182 41.3238 63.9945 41.2764 64.3477 41.3709C64.7009 41.4655 65.0032 41.6946 65.1897 42.0091C65.3763 42.3236 65.4324 42.6986 65.346 43.054ZM7.197 27.474C7.14933 27.6516 7.06714 27.8181 6.95513 27.9639C6.84312 28.1098 6.70348 28.2321 6.54418 28.324C6.38488 28.4159 6.20904 28.4755 6.02671 28.4994C5.84437 28.5234 5.65911 28.5111 5.4815 28.4635C5.30388 28.4158 5.1374 28.3336 4.99155 28.2216C4.8457 28.1096 4.72334 27.97 4.63146 27.8107C4.53957 27.6514 4.47996 27.4755 4.45604 27.2932C4.43211 27.1109 4.44433 26.9256 4.492 26.748C4.5396 26.5704 4.62172 26.4039 4.73367 26.258C4.84562 26.1121 4.98521 25.9897 5.14446 25.8978C5.30371 25.8059 5.47951 25.7462 5.66182 25.7222C5.84413 25.6982 6.02938 25.7104 6.207 25.758C6.38461 25.8056 6.55111 25.8877 6.69698 25.9997C6.84286 26.1116 6.96526 26.2512 7.05719 26.4104C7.14912 26.5697 7.20878 26.7455 7.23277 26.9278C7.25676 27.1101 7.2446 27.2954 7.197 27.473V27.474ZM62.196 50.653C62.1041 50.8122 61.9817 50.9518 61.8358 51.0637C61.69 51.1756 61.5235 51.2577 61.3459 51.3053C61.1683 51.3529 60.9831 51.3651 60.8008 51.3411C60.6185 51.3171 60.4427 51.2574 60.2835 51.1655C60.1243 51.0736 59.9847 50.9512 59.8728 50.8053C59.7608 50.6594 59.6787 50.493 59.6312 50.3154C59.5836 50.1378 59.5714 49.9526 59.5954 49.7703C59.6194 49.588 59.6791 49.4122 59.771 49.253C59.9566 48.9314 60.2624 48.6968 60.6211 48.6006C60.9798 48.5045 61.3619 48.5548 61.6835 48.7405C62.0051 48.9261 62.2397 49.2319 62.3358 49.5906C62.432 49.9493 62.3816 50.3314 62.196 50.653ZM10.061 20.553C9.87535 20.8746 9.56955 21.1092 9.21089 21.2053C8.85223 21.3014 8.47007 21.2511 8.1485 21.0655C7.82692 20.8798 7.59227 20.574 7.49616 20.2154C7.40004 19.8567 7.45035 19.4746 7.636 19.153C7.72792 18.9938 7.85031 18.8542 7.99617 18.7423C8.14203 18.6303 8.30851 18.5482 8.4861 18.5006C8.6637 18.453 8.84892 18.4409 9.03121 18.4649C9.21349 18.4889 9.38927 18.5486 9.5485 18.6405C9.70772 18.7324 9.84729 18.8548 9.95922 19.0007C10.0711 19.1465 10.1532 19.313 10.2008 19.4906C10.2484 19.6682 10.2606 19.8534 10.2366 20.0357C10.2126 20.218 10.1529 20.3938 10.061 20.553ZM57.187 57.177C57.057 57.307 56.9026 57.4101 56.7328 57.4805C56.5629 57.5508 56.3809 57.5871 56.197 57.5871C56.0131 57.5871 55.8311 57.5508 55.6612 57.4805C55.4913 57.4101 55.337 57.307 55.207 57.177C55.077 57.047 54.9739 56.8926 54.9035 56.7228C54.8331 56.5529 54.7969 56.3708 54.7969 56.187C54.7969 56.0031 54.8331 55.8211 54.9035 55.6512C54.9739 55.4813 55.077 55.327 55.207 55.197C55.4696 54.9344 55.8257 54.7869 56.197 54.7869C56.5683 54.7869 56.9244 54.9344 57.187 55.197C57.4496 55.4595 57.5971 55.8157 57.5971 56.187C57.5971 56.5583 57.4496 56.9144 57.187 57.177ZM14.619 14.609C14.489 14.739 14.3346 14.8421 14.1648 14.9125C13.9949 14.9828 13.8129 15.0191 13.629 15.0191C13.4451 15.0191 13.2631 14.9828 13.0932 14.9125C12.9233 14.8421 12.769 14.739 12.639 14.609C12.509 14.479 12.4059 14.3246 12.3355 14.1548C12.2651 13.9849 12.2289 13.8028 12.2289 13.619C12.2289 13.4351 12.2651 13.2531 12.3355 13.0832C12.4059 12.9133 12.509 12.759 12.639 12.629C12.9016 12.3664 13.2577 12.2189 13.629 12.2189C14.0003 12.2189 14.3564 12.3664 14.619 12.629C14.8816 12.8915 15.0291 13.2477 15.0291 13.619C15.0291 13.9903 14.8816 14.3464 14.619 14.609ZM50.659 62.183C50.4998 62.2749 50.324 62.3346 50.1417 62.3586C49.9594 62.3826 49.7742 62.3704 49.5966 62.3228C49.419 62.2752 49.2525 62.1931 49.1067 62.0812C48.9608 61.9693 48.8384 61.8297 48.7465 61.6705C48.6546 61.5113 48.5949 61.3355 48.5709 61.1532C48.5469 60.9709 48.5591 60.7857 48.6067 60.6081C48.6542 60.4305 48.7363 60.264 48.8483 60.1182C48.9602 59.9723 49.0998 59.8499 49.259 59.758C49.5806 59.5723 49.9627 59.522 50.3214 59.6181C50.6801 59.7143 50.9858 59.9489 51.1715 60.2705C51.3571 60.5921 51.4074 60.9742 51.3113 61.3329C51.2152 61.6915 50.9806 61.9973 50.659 62.183ZM20.559 10.048C20.3998 10.1399 20.224 10.1996 20.0417 10.2236C19.8594 10.2476 19.6742 10.2354 19.4966 10.1878C19.319 10.1402 19.1525 10.0581 19.0067 9.9462C18.8608 9.83427 18.7384 9.69471 18.6465 9.53548C18.5546 9.37625 18.4949 9.20048 18.4709 9.01819C18.4469 8.83591 18.4591 8.65068 18.5067 8.47309C18.5542 8.2955 18.6363 8.12902 18.7483 7.98316C18.8602 7.83729 18.9998 7.71491 19.159 7.62298C19.4806 7.43733 19.8627 7.38703 20.2214 7.48314C20.5801 7.57925 20.8858 7.81391 21.0715 8.13548C21.2572 8.45706 21.3075 8.83921 21.2113 9.19787C21.1152 9.55654 20.8806 9.86233 20.559 10.048ZM43.059 65.328C42.8799 65.3804 42.6922 65.3965 42.5068 65.3753C42.3214 65.3542 42.1422 65.2962 41.9795 65.2047C41.8169 65.1133 41.6742 64.9902 41.5598 64.8429C41.4454 64.6955 41.3616 64.5267 41.3133 64.3465C41.265 64.1662 41.2533 63.9782 41.2788 63.7933C41.3042 63.6085 41.3664 63.4306 41.4616 63.2701C41.5567 63.1097 41.683 62.9698 41.833 62.8589C41.983 62.7479 42.1537 62.6681 42.335 62.624C42.6903 62.5376 43.0654 62.5937 43.3799 62.7803C43.6944 62.9668 43.9234 63.269 44.018 63.6223C44.1126 63.9755 44.0652 64.3517 43.886 64.6705C43.7068 64.9893 43.41 65.2252 43.059 65.328ZM27.48 7.17998C27.3024 7.22759 27.1171 7.23974 26.9348 7.21575C26.7525 7.19176 26.5767 7.1321 26.4175 7.04017C26.2582 6.94824 26.1186 6.82584 26.0067 6.67997C25.8947 6.53409 25.8126 6.36759 25.765 6.18998C25.7174 6.01237 25.7052 5.82712 25.7292 5.64481C25.7532 5.4625 25.8129 5.2867 25.9048 5.12745C25.9967 4.96819 26.1191 4.82861 26.265 4.71666C26.4109 4.60471 26.5774 4.52259 26.755 4.47498C26.9326 4.42744 27.1178 4.41535 27.3001 4.4394C27.4824 4.46345 27.6582 4.52317 27.8174 4.61515C27.9766 4.70712 28.1161 4.82956 28.228 4.97546C28.3399 5.12136 28.422 5.28787 28.4695 5.46548C28.517 5.64309 28.5291 5.82833 28.5051 6.01062C28.481 6.1929 28.4213 6.36866 28.3293 6.52787C28.2374 6.68708 28.1149 6.82661 27.969 6.9385C27.8231 7.05039 27.6576 7.13244 27.48 7.17998Z" stroke="white" stroke-width="1.5" stroke-miterlimit="50"/>
</g>
<mask id="mask1_101412_712" style="mask-type:luminance" maskUnits="userSpaceOnUse" x="0" y="0" width="70" height="70">
<path d="M34 0H36V9H34V0ZM34 61H36V70H34V61ZM0 36V34H9V36H0ZM61 36V34H70V36H61Z" fill="white"/>
</mask>
<g mask="url(#mask1_101412_712)">
<path d="M34 0H36V9H34V0ZM34 61H36V70H34V61ZM0 36V34H9V36H0ZM61 36V34H70V36H61Z" stroke="white" stroke-width="6" stroke-miterlimit="50"/>
</g>
<mask id="mask2_101412_712" style="mask-type:luminance" maskUnits="userSpaceOnUse" x="17" y="11" width="19" height="25">
<path d="M17 36V34H34V11H36V36H17Z" fill="white"/>
</mask>
<g mask="url(#mask2_101412_712)">
<path d="M17 36V34H34V11H36V36H17Z" stroke="white" stroke-width="6" stroke-miterlimit="50"/>
</g>
<mask id="mask3_101412_712" style="mask-type:luminance" maskUnits="userSpaceOnUse" x="31" y="31" width="8" height="8">
<path d="M35.021 31.5C35.9493 31.5 36.8395 31.8688 37.4959 32.5251C38.1522 33.1815 38.521 34.0717 38.521 35C38.521 35.9283 38.1522 36.8185 37.4959 37.4749C36.8395 38.1312 35.9493 38.5 35.021 38.5C34.0927 38.5 33.2025 38.1312 32.5461 37.4749C31.8897 36.8185 31.521 35.9283 31.521 35C31.521 34.0717 31.8897 33.1815 32.5461 32.5251C33.2025 31.8688 34.0927 31.5 35.021 31.5Z" fill="white"/>
</mask>
<g mask="url(#mask3_101412_712)">
<path d="M35.021 31.5C35.9493 31.5 36.8395 31.8688 37.4959 32.5251C38.1522 33.1815 38.521 34.0717 38.521 35C38.521 35.9283 38.1522 36.8185 37.4959 37.4749C36.8395 38.1312 35.9493 38.5 35.021 38.5C34.0927 38.5 33.2025 38.1312 32.5461 37.4749C31.8897 36.8185 31.521 35.9283 31.521 35C31.521 34.0717 31.8897 33.1815 32.5461 32.5251C33.2025 31.8688 34.0927 31.5 35.021 31.5Z" stroke="white" stroke-width="6" stroke-miterlimit="50"/>
</g>
</g>
<defs>
<clipPath id="clip0_101412_712">
<rect width="70" height="70" fill="white"/>
</clipPath>
</defs>
</svg>
